<svg width="29" height="22" viewBox="0 0 29 22" fill="none" xmlns="http://www.w3.org/2000/svg">
<path fill-rule="evenodd" clip-rule="evenodd" d="M9.88663 4.33325C6.85639 4.33325 4.3999 6.78974 4.3999 9.81998C4.3999 12.8502 6.85639 15.3067 9.88663 15.3067C12.9169 15.3067 15.3734 12.8502 15.3734 9.81998C15.3734 6.78974 12.9169 4.33325 9.88663 4.33325ZM9.88663 0.833252C4.9234 0.833252 0.899902 4.85675 0.899902 9.81998C0.899902 14.7832 4.9234 18.8067 9.88663 18.8067C11.3811 18.8067 12.7903 18.4419 14.0301 17.7966C14.7457 17.4241 15.6412 17.4761 16.2116 18.0465L19.5356 21.3705C20.1527 21.9876 21.1531 21.9876 21.7702 21.3705C22.3872 20.7535 22.3872 19.753 21.7702 19.136L18.3348 15.7006C17.7875 15.1533 17.7159 14.3024 18.0419 13.6004C18.5755 12.4513 18.8734 11.1704 18.8734 9.81998C18.8734 4.85675 14.8499 0.833252 9.88663 0.833252ZM23.1846 17.7217L20.2961 14.8333H27C27.8285 14.8333 28.5 15.5048 28.5 16.3333C28.5 17.1617 27.8285 17.8333 27 17.8333H23.2914C23.2568 17.7955 23.2211 17.7583 23.1846 17.7217ZM18.3662 2.83325C19.1026 3.72591 19.7007 4.73683 20.1278 5.83325H27C27.8285 5.83325 28.5 5.16168 28.5 4.33325C28.5 3.50482 27.8285 2.83325 27 2.83325H18.3662ZM20.8298 8.83325C20.8587 9.1583 20.8735 9.48741 20.8735 9.81998C20.8735 10.5068 20.8103 11.1799 20.6891 11.8333H27C27.8285 11.8333 28.5 11.1617 28.5 10.3333C28.5 9.50482 27.8285 8.83325 27 8.83325H20.8298Z" fill="#CCCCCC"/>
</svg>
