<svg width="16" height="16" viewBox="0 0 16 16" fill="none" xmlns="http://www.w3.org/2000/svg">
<path fill-rule="evenodd" clip-rule="evenodd" d="M15 8C15 11.866 11.866 15 8 15C4.13401 15 1 11.866 1 8C1 4.13401 4.13401 1 8 1C11.866 1 15 4.13401 15 8ZM16 8C16 12.4183 12.4183 16 8 16C3.58172 16 0 12.4183 0 8C0 3.58172 3.58172 0 8 0C12.4183 0 16 3.58172 16 8ZM7.24902 5.35742C7.41504 5.51042 7.62826 5.58691 7.88867 5.58691C8.15234 5.58691 8.36556 5.51204 8.52832 5.3623C8.69434 5.21256 8.77734 5.02051 8.77734 4.78613C8.77734 4.55501 8.69434 4.36621 8.52832 4.21973C8.36556 4.07324 8.15234 4 7.88867 4C7.62826 4 7.41504 4.07324 7.24902 4.21973C7.08301 4.36621 7 4.55501 7 4.78613C7 5.01074 7.08301 5.20117 7.24902 5.35742ZM7.10742 11.3779H8.65039V6.37793H7.10742V11.3779Z" fill="#A0A0A4"/>
</svg>
