<svg width="20" height="20" viewBox="0 0 20 20" fill="none" xmlns="http://www.w3.org/2000/svg">
<path fill-rule="evenodd" clip-rule="evenodd" d="M10 19.9998C4.47715 19.9998 0 15.5226 0 9.99976C0 4.47691 4.47715 -0.000244141 10 -0.000244141C15.5228 -0.000244141 20 4.47691 20 9.99976C20 15.5226 15.5228 19.9998 10 19.9998ZM9.99997 18.1816C14.5187 18.1816 18.1818 14.5184 18.1818 9.99973C18.1818 5.48103 14.5187 1.81791 9.99997 1.81791C5.48128 1.81791 1.81815 5.48103 1.81815 9.99973C1.81815 14.5184 5.48128 18.1816 9.99997 18.1816ZM7.39278 8.76327C7.03336 8.34394 6.40206 8.29538 5.98273 8.6548C5.56341 9.01422 5.51485 9.64552 5.87427 10.0648L8.49219 13.1191C9.09334 13.8204 10.1795 13.817 10.7761 13.1118L15.2094 7.8725C15.5662 7.45089 15.5136 6.81991 15.092 6.46317C14.6704 6.10643 14.0394 6.15901 13.6826 6.58061L9.62861 11.3717L7.39278 8.76327Z" fill="url(#paint0_linear_1737_8)"/>
<defs>
<linearGradient id="paint0_linear_1737_8" x1="8" y1="6.5" x2="9.50888" y2="14.8594" gradientUnits="userSpaceOnUse">
<stop stop-color="#0CD38B"/>
<stop offset="1" stop-color="#0CB477"/>
</linearGradient>
</defs>
</svg>
